<svg width="24" height="25" viewBox="0 0 24 25" fill="none" xmlns="http://www.w3.org/2000/svg">
<path d="M7.2 19.7C5.88 19.7 4.8 20.78 4.8 22.1C4.8 23.42 5.88 24.5 7.2 24.5C8.52 24.5 9.6 23.42 9.6 22.1C9.6 20.78 8.52 19.7 7.2 19.7ZM0 0.5V2.9H2.4L6.72 12.02L5.04 14.9C4.92 15.26 4.8 15.74 4.8 16.1C4.8 17.42 5.88 18.5 7.2 18.5H21.6V16.1H7.68C7.56 16.1 7.44 15.98 7.44 15.86V15.74L8.52 13.7H17.4C18.36 13.7 19.08 13.22 19.44 12.5L23.76 4.7C24 4.46 24 4.34 24 4.1C24 3.38 23.52 2.9 22.8 2.9H5.04L3.96 0.5H0ZM19.2 19.7C17.88 19.7 16.8 20.78 16.8 22.1C16.8 23.42 17.88 24.5 19.2 24.5C20.52 24.5 21.6 23.42 21.6 22.1C21.6 20.78 20.52 19.7 19.2 19.7Z" fill="#FF8514"/>
</svg>
