<svg width="174" height="58" viewBox="0 0 174 58" fill="none" xmlns="http://www.w3.org/2000/svg">
<path d="M118.012 10.5033C118.012 10.5033 112.653 6.38806 101.953 4.16287C91.2534 1.93769 75.4353 0.687323 61.9252 4.16302C48.4152 7.63872 50.6235 7.05835 35.3198 11.9664C20.0162 16.8745 1 14.4344 1 14.4344C1 14.4344 20.9386 17.5749 40.593 18.5503C60.2474 19.5257 132.95 18.0014 148.529 19.4645C164.109 20.9276 172 27.5108 172 27.5108" stroke="white" stroke-width="2.01176" stroke-linecap="round"/>
<path d="M24.4238 47.793H17.3625L16.9401 42.9949H11.3574L9.21488 47.793H6.28776L15.1898 28.6309H22.3416L24.4238 47.793ZM12.3532 40.792H16.7288L16.0348 32.584L12.3532 40.792ZM33.4742 40.9429C33.3736 41.3855 33.2931 41.7677 33.2328 42.0896C33.1724 42.4115 33.1422 42.7133 33.1422 42.9949C33.1422 43.699 33.3836 44.2623 33.8665 44.6848C34.3694 45.1073 35.1037 45.3185 36.0693 45.3185C36.7735 45.3185 37.3468 45.1978 37.7894 44.9564C38.2521 44.715 38.6243 44.3931 38.9059 43.9907C39.2077 43.5884 39.4391 43.1257 39.6 42.6026C39.7811 42.0796 39.9319 41.5263 40.0526 40.9429L42.6176 28.6309H45.3637L42.7383 41.0033C42.5372 41.9689 42.2455 42.8742 41.8632 43.7191C41.481 44.5641 40.9278 45.3084 40.2035 45.9522C39.4994 46.596 38.5841 47.109 37.4575 47.4912C36.3309 47.8533 34.9327 48.0344 33.2629 48.0344C30.9494 48.0344 29.2394 47.6622 28.1329 46.9179C27.0265 46.1534 26.4732 44.9866 26.4732 43.4174C26.4732 42.7133 26.5638 41.818 26.7448 40.7317C26.9259 39.6453 27.1572 38.4684 27.4389 37.201L29.2796 28.6309H36.1297L33.4742 40.9429ZM62.8022 30.9243H57.9437L54.3528 47.793H47.8346L51.4256 30.9243H46.6276L47.1707 28.6309H63.3152L62.8022 30.9243ZM73.0353 28.3291C74.7654 28.3291 76.1636 28.5504 77.2298 28.993C78.3162 29.4356 79.1712 30.1196 79.7948 31.045C80.1972 31.6687 80.509 32.3728 80.7303 33.1574C80.9516 33.942 81.0622 34.8473 81.0622 35.8733C81.0622 36.7584 80.9818 37.6436 80.8208 38.5288C80.6599 39.414 80.4285 40.269 80.1268 41.0938C79.8451 41.8985 79.4931 42.663 79.0706 43.3872C78.6682 44.0913 78.2156 44.715 77.7126 45.2581C76.7671 46.2841 75.6707 47.0084 74.4234 47.4309C73.1962 47.8332 71.6773 48.0344 69.8668 48.0344C68.1165 48.0344 66.7083 47.8533 65.642 47.4912C64.5758 47.1291 63.7309 46.5457 63.1072 45.741C62.6646 45.1777 62.3126 44.4635 62.051 43.5984C61.8096 42.7334 61.6889 41.647 61.6889 40.3394C61.6889 38.1063 62.0812 36.1147 62.8658 34.3644C63.6705 32.5941 64.8072 31.1959 66.2758 30.1699C67.1609 29.5463 68.1467 29.0836 69.2331 28.7818C70.3194 28.48 71.5868 28.3291 73.0353 28.3291ZM69.6253 45.922C70.0881 45.922 70.5206 45.7209 70.9229 45.3185C71.3454 44.896 71.7276 44.3428 72.0696 43.6588C72.4318 42.9547 72.7536 42.16 73.0353 41.2749C73.3371 40.3897 73.5885 39.4743 73.7897 38.5288C73.9909 37.5833 74.1418 36.6478 74.2423 35.7224C74.3631 34.7769 74.4234 33.9218 74.4234 33.1574C74.4234 32.1113 74.3128 31.3971 74.0915 31.0148C73.8903 30.6125 73.5885 30.4113 73.1862 30.4113C72.7235 30.4113 72.2809 30.6125 71.8584 31.0148C71.4359 31.4172 71.0336 31.9604 70.6513 32.6444C70.2892 33.3083 69.9573 34.0828 69.6555 34.968C69.3739 35.833 69.1224 36.7283 68.9011 37.6537C68.6999 38.5791 68.539 39.4944 68.4183 40.3997C68.3177 41.305 68.2674 42.1399 68.2674 42.9044C68.2674 44.0511 68.3881 44.8457 68.6295 45.2883C68.8911 45.7108 69.223 45.922 69.6253 45.922Z" fill="white"/>
<path d="M90.9773 39.5246C91.5808 39.5246 92.0838 39.2731 92.4861 38.7702C92.9086 38.2673 93.2506 37.6537 93.5121 36.9294C93.7938 36.2052 93.995 35.4508 94.1157 34.6662C94.2364 33.8816 94.2967 33.1976 94.2967 32.6142C94.2967 32.071 94.2062 31.6184 94.0251 31.2563C93.8441 30.874 93.4518 30.6829 92.8483 30.6829H91.4903L89.5892 39.5246H90.9773ZM89.1667 41.4559L87.8088 47.793H81.2907L85.3645 28.6309H92.3353C93.482 28.6309 94.5281 28.6913 95.4736 28.812C96.4191 28.9327 97.2339 29.1741 97.9179 29.5362C98.6019 29.8983 99.135 30.4214 99.5173 31.1054C99.8995 31.7693 100.091 32.6645 100.091 33.7911C100.091 34.8372 99.9196 35.833 99.5776 36.7786C99.2557 37.704 98.7226 38.5187 97.9783 39.2229C97.254 39.9069 96.3085 40.45 95.1417 40.8524C93.9748 41.2547 92.5566 41.4559 90.8868 41.4559H89.1667ZM118.185 33.1876C118.185 34.3745 117.853 35.4709 117.189 36.4768C116.525 37.4827 115.429 38.2471 113.9 38.7702L117.4 47.793H110.671L108.015 39.4341H107.683L105.903 47.793H99.3848L103.459 28.6309H111.395C112.32 28.6309 113.196 28.6913 114.02 28.812C114.845 28.9126 115.559 29.1338 116.163 29.4758C116.787 29.7977 117.279 30.2604 117.642 30.864C118.004 31.4474 118.185 32.2219 118.185 33.1876ZM109.494 37.5028C110.017 37.5028 110.46 37.3318 110.822 36.9898C111.204 36.6277 111.506 36.1951 111.727 35.6922C111.968 35.1893 112.139 34.6561 112.24 34.0928C112.341 33.5094 112.391 33.0065 112.391 32.584C112.391 32.061 112.3 31.6184 112.119 31.2563C111.938 30.874 111.546 30.6829 110.942 30.6829H109.584L108.076 37.5028H109.494ZM130.559 28.3291C132.289 28.3291 133.687 28.5504 134.754 28.993C135.84 29.4356 136.695 30.1196 137.319 31.045C137.721 31.6687 138.033 32.3728 138.254 33.1574C138.475 33.942 138.586 34.8473 138.586 35.8733C138.586 36.7584 138.506 37.6436 138.345 38.5288C138.184 39.414 137.952 40.269 137.651 41.0938C137.369 41.8985 137.017 42.663 136.594 43.3872C136.192 44.0913 135.739 44.715 135.237 45.2581C134.291 46.2841 133.195 47.0084 131.947 47.4309C130.72 47.8332 129.201 48.0344 127.391 48.0344C125.64 48.0344 124.232 47.8533 123.166 47.4912C122.1 47.1291 121.255 46.5457 120.631 45.741C120.189 45.1777 119.836 44.4635 119.575 43.5984C119.334 42.7334 119.213 41.647 119.213 40.3394C119.213 38.1063 119.605 36.1147 120.39 34.3644C121.194 32.5941 122.331 31.1959 123.8 30.1699C124.685 29.5463 125.671 29.0836 126.757 28.7818C127.843 28.48 129.111 28.3291 130.559 28.3291ZM127.149 45.922C127.612 45.922 128.044 45.7209 128.447 45.3185C128.869 44.896 129.252 44.3428 129.594 43.6588C129.956 42.9547 130.278 42.16 130.559 41.2749C130.861 40.3897 131.112 39.4743 131.314 38.5288C131.515 37.5833 131.666 36.6478 131.766 35.7224C131.887 34.7769 131.947 33.9218 131.947 33.1574C131.947 32.1113 131.837 31.3971 131.615 31.0148C131.414 30.6125 131.112 30.4113 130.71 30.4113C130.247 30.4113 129.805 30.6125 129.382 31.0148C128.96 31.4172 128.557 31.9604 128.175 32.6444C127.813 33.3083 127.481 34.0828 127.179 34.968C126.898 35.833 126.646 36.7283 126.425 37.6537C126.224 38.5791 126.063 39.4944 125.942 40.3997C125.842 41.305 125.791 42.1399 125.791 42.9044C125.791 44.0511 125.912 44.8457 126.153 45.2883C126.415 45.7108 126.747 45.922 127.149 45.922ZM160.964 47.793H154.265L157.041 34.7567L149.889 47.793H145.785L144.427 34.3041L141.53 47.793H138.815L142.888 28.6309H150.583L151.519 39.4341L157.313 28.6309H165.068L160.964 47.793Z" fill="#FF8514"/>
</svg>
