<svg width="30" height="30" viewBox="0 0 30 30" fill="none" xmlns="http://www.w3.org/2000/svg">
<g clip-path="url(#clip0)">
<path d="M1.87464 2.04112C-0.482861 4.48987 -0.000361279 7.09113 -0.000361279 14.9936C-0.000361279 21.5561 -1.14536 28.1349 4.84714 29.6836C6.71839 30.1649 23.2984 30.1649 25.1671 29.6811C27.6621 29.0374 29.6921 27.0136 29.9696 23.4849C30.0084 22.9924 30.0084 7.00362 29.9684 6.50112C29.6734 2.74237 27.3596 0.576125 24.3109 0.137375C23.6121 0.0361249 23.4721 0.00612489 19.8871 -0.00012511C7.17089 0.00612489 4.38339 -0.560125 1.87464 2.04112Z" fill="#FF8514"/>
<path d="M14.9973 3.92378C10.4585 3.92378 6.14852 3.52003 4.50227 7.74503C3.82227 9.49003 3.92102 11.7563 3.92102 15.0013C3.92102 17.8488 3.82977 20.525 4.50227 22.2563C6.14477 26.4838 10.4898 26.0788 14.9948 26.0788C19.341 26.0788 23.8223 26.5313 25.4885 22.2563C26.1698 20.4938 26.0698 18.2613 26.0698 15.0013C26.0698 10.6738 26.3085 7.88003 24.2098 5.78253C22.0848 3.65753 19.211 3.92378 14.9923 3.92378H14.9973ZM14.0048 5.92003C23.4723 5.90503 24.6773 4.85253 24.0123 19.4738C23.776 24.645 19.8385 24.0775 14.9985 24.0775C6.17352 24.0775 5.91977 23.825 5.91977 14.9963C5.91977 6.06503 6.61977 5.92503 14.0048 5.91753V5.92003ZM20.9098 7.75878C20.176 7.75878 19.581 8.35378 19.581 9.08753C19.581 9.82128 20.176 10.4163 20.9098 10.4163C21.6435 10.4163 22.2385 9.82128 22.2385 9.08753C22.2385 8.35378 21.6435 7.75878 20.9098 7.75878ZM14.9973 9.31253C11.856 9.31253 9.30977 11.86 9.30977 15.0013C9.30977 18.1425 11.856 20.6888 14.9973 20.6888C18.1385 20.6888 20.6835 18.1425 20.6835 15.0013C20.6835 11.86 18.1385 9.31253 14.9973 9.31253ZM14.9973 11.3088C19.8785 11.3088 19.8848 18.6938 14.9973 18.6938C10.1173 18.6938 10.1098 11.3088 14.9973 11.3088Z" fill="#272522"/>
</g>
<defs>
<clipPath id="clip0">
<rect width="30" height="30" fill="white"/>
</clipPath>
</defs>
</svg>
