<svg width="32" height="32" viewBox="0 0 32 32" fill="none" xmlns="http://www.w3.org/2000/svg">
<g clip-path="url(#clip0)">
<path d="M30.8734 18.524C31.8281 10.488 30.4148 5.4147 27.8654 3.12003L27.8668 3.1187C23.7521 -0.799967 9.85611 -1.37997 4.93344 3.2947C2.72277 5.58137 1.94411 8.93737 1.85877 13.092C1.77344 17.248 1.67211 25.0334 8.92677 27.1454H8.93344L8.92677 30.3707C8.92677 30.3707 8.87744 31.6774 9.71211 31.94C10.6668 32.2494 11.0988 31.6427 14.0681 28.096C19.0334 28.5267 22.8468 27.54 23.2801 27.396C24.2828 27.06 29.9561 26.3094 30.8734 18.524ZM14.5574 25.8267C14.5574 25.8267 11.4148 29.7454 10.4374 30.7627C10.1174 31.0934 9.76677 31.0627 9.77211 30.4067C9.77211 29.976 9.79611 25.052 9.79611 25.052C3.64544 23.2894 4.00811 16.66 4.07477 13.192C4.14144 9.7227 4.77611 6.88137 6.64811 4.96803C10.9668 0.9187 23.1494 1.82403 26.2534 4.74137C30.0481 8.10537 28.6974 17.6094 28.7054 17.9334C27.9254 24.432 23.3281 24.844 22.4828 25.1254C22.1214 25.2454 18.7681 26.108 14.5574 25.8267Z" fill="#FF8514"/>
<path d="M16.2961 5.72925C15.7828 5.72925 15.7828 6.52925 16.2961 6.53591C20.2788 6.56658 23.5588 9.34258 23.5948 14.4346C23.5948 14.9719 24.3815 14.9652 24.3748 14.4279H24.3735C24.3308 8.94125 20.7495 5.75991 16.2961 5.72925Z" fill="#FF8514"/>
<path d="M21.5349 13.5907C21.5229 14.1214 22.3083 14.1467 22.3149 13.6094C22.3803 10.584 20.5149 8.09205 17.0096 7.82938C16.4962 7.79205 16.4429 8.59871 16.9549 8.63605C19.9949 8.86671 21.5963 10.9414 21.5349 13.5907Z" fill="#FF8514"/>
<path d="M20.6946 17.0321C20.036 16.6507 19.3653 16.8881 19.088 17.2627L18.508 18.0134C18.2133 18.3947 17.6626 18.3441 17.6626 18.3441C13.644 17.2814 12.5693 13.0761 12.5693 13.0761C12.5693 13.0761 12.52 12.5067 12.888 12.2014L13.6133 11.6014C13.976 11.3134 14.2053 10.6201 13.836 9.93872C12.8493 8.15606 12.1866 7.54139 11.8493 7.06939C11.4946 6.62539 10.9613 6.52539 10.4066 6.82539H10.3946C9.24129 7.50006 7.97863 8.76272 8.38263 10.0627C9.07196 11.4334 10.3386 15.8027 14.376 19.1041C16.2733 20.6654 19.276 22.2654 20.5506 22.6347L20.5626 22.6534C21.8186 23.0721 23.04 21.7601 23.6919 20.5721V20.5627C23.9813 19.9881 23.8853 19.4441 23.4626 19.0881C22.7133 18.3574 21.5826 17.5507 20.6946 17.0321Z" fill="#FF8514"/>
<path d="M17.5588 10.8053C18.8401 10.88 19.4615 11.5493 19.5281 12.924C19.5521 13.4613 20.3321 13.424 20.3081 12.8867C20.2228 11.092 19.2868 10.092 17.6015 9.99866C17.0881 9.96799 17.0401 10.7747 17.5588 10.8053Z" fill="#FF8514"/>
</g>
<defs>
<clipPath id="clip0">
<rect width="32" height="32" fill="white"/>
</clipPath>
</defs>
</svg>
