<svg width="32" height="32" viewBox="0 0 32 32" fill="none" xmlns="http://www.w3.org/2000/svg">
<path d="M16 32C24.8366 32 32 24.8366 32 16C32 7.16344 24.8366 0 16 0C7.16344 0 0 7.16344 0 16C0 24.8366 7.16344 32 16 32Z" fill="#FF8514"/>
<path d="M7.3212 15.6534L22.7479 9.70537C23.4639 9.4467 24.0892 9.88003 23.8572 10.9627L23.8585 10.9614L21.2319 23.336C21.0372 24.2134 20.5159 24.4267 19.7865 24.0134L15.7865 21.0654L13.8572 22.924C13.6439 23.1374 13.4639 23.3174 13.0505 23.3174L13.3345 19.2467L20.7479 12.5494C21.0705 12.2654 20.6759 12.1054 20.2505 12.388L11.0892 18.156L7.13986 16.924C6.28253 16.652 6.26386 16.0667 7.3212 15.6534Z" fill="#272522"/>
</svg>
