<svg width="32" height="32" viewBox="0 0 32 32" fill="none" xmlns="http://www.w3.org/2000/svg">
<path fill-rule="evenodd" clip-rule="evenodd" d="M31 16C31 24.2843 24.2843 31 16 31C7.71573 31 1 24.2843 1 16C1 7.71573 7.71573 1 16 1C24.2843 1 31 7.71573 31 16ZM32 16C32 24.8366 24.8366 32 16 32C7.16344 32 0 24.8366 0 16C0 7.16344 7.16344 0 16 0C24.8366 0 32 7.16344 32 16ZM19.9655 16C19.9655 18.1901 18.1901 19.9655 16 19.9655C13.8099 19.9655 12.0345 18.1901 12.0345 16C12.0345 13.8099 13.8099 12.0345 16 12.0345C18.1901 12.0345 19.9655 13.8099 19.9655 16ZM20.9655 16C20.9655 16.0317 20.9652 16.0633 20.9646 16.0949C20.9556 16.5784 21.208 17.0505 21.6598 17.2232L23.9528 18.1C24.1094 18.1598 24.2856 18.1372 24.422 18.0398L27.4406 15.8837C27.6653 15.7232 27.9776 15.7753 28.1381 16C28.2986 16.2247 28.2465 16.537 28.0218 16.6975L25.0032 18.8535C24.594 19.1459 24.0655 19.2136 23.5957 19.034L21.5058 18.2349C20.9989 18.0411 20.4379 18.2947 20.1374 18.7465C20.0747 18.8409 20.0087 18.933 19.9398 19.0227C19.6517 19.3976 19.5712 19.9125 19.8166 20.3167L21.1009 22.4319C21.1915 22.5812 21.3536 22.6724 21.5282 22.6724H25.431C25.7072 22.6724 25.931 22.8963 25.931 23.1724C25.931 23.4486 25.7072 23.6724 25.431 23.6724H21.5282C21.0042 23.6724 20.5181 23.3989 20.2461 22.9509L19.118 21.093C18.8303 20.6191 18.2135 20.4808 17.6923 20.6697C17.6011 20.7027 17.5087 20.7332 17.4152 20.7609C16.9253 20.9063 16.5353 21.3245 16.5353 21.8356L16.5353 24.3508C16.5353 24.5016 16.6034 24.6444 16.7205 24.7393L18.685 26.3312C18.8995 26.5051 18.9325 26.8199 18.7586 27.0345C18.5848 27.249 18.2699 27.282 18.0554 27.1081L16.0909 25.5162C15.7395 25.2314 15.5353 24.8032 15.5353 24.3508L15.5353 21.8555C15.5353 21.3391 15.1373 20.9182 14.6405 20.7771C14.5559 20.7531 14.4722 20.7269 14.3895 20.6985C13.8923 20.5281 13.3141 20.6538 13.0226 21.0912L11.7069 23.065C11.6255 23.187 11.6019 23.3386 11.6422 23.4797L12.4813 26.4164C12.5572 26.6819 12.4034 26.9586 12.1379 27.0345C11.8724 27.1104 11.5957 26.9566 11.5198 26.6911L10.6807 23.7544C10.5598 23.3313 10.6308 22.8765 10.8748 22.5103L12.2403 20.4619C12.5183 20.0448 12.435 19.4924 12.1217 19.1011C12.033 18.9903 11.9489 18.8757 11.8698 18.7574C11.5706 18.31 11.0154 18.0584 10.5115 18.2474L8.37186 19.0498C8.22345 19.1055 8.11023 19.2282 8.06667 19.3806L7.23883 22.2773C7.16295 22.5428 6.8862 22.6966 6.62069 22.6207C6.35518 22.5448 6.20145 22.2681 6.27733 22.0025L7.10517 19.1058C7.23582 18.6486 7.57551 18.2805 8.02072 18.1135L10.3339 17.246C10.7907 17.0747 11.0463 16.5978 11.0357 16.11C11.0349 16.0734 11.0345 16.0368 11.0345 16C11.0345 15.9041 11.0372 15.8089 11.0426 15.7144C11.0733 15.1728 10.7765 14.6335 10.2548 14.4845L8.09535 13.8674C7.93627 13.822 7.765 13.8582 7.6379 13.9641L5.118 16.064C4.90586 16.2408 4.59058 16.2121 4.41379 16C4.23701 15.7879 4.26568 15.4726 4.47781 15.2958L6.99771 13.1959C7.37902 12.8781 7.89282 12.7696 8.37008 12.9059L10.7378 13.5824C11.203 13.7153 11.6881 13.4889 11.9713 13.0967C12.0631 12.9695 12.1607 12.8469 12.2638 12.7292C12.642 12.2975 12.7297 11.6429 12.3622 11.202L10.95 9.5075C10.855 9.39351 10.7143 9.32761 10.5659 9.32761L7.12059 9.32759C6.84444 9.32759 6.62059 9.10373 6.62059 8.82759C6.62059 8.55145 6.84445 8.32759 7.12059 8.32759L10.5659 8.32761C11.0111 8.32761 11.4332 8.52532 11.7182 8.86728L13.4207 10.91C13.7082 11.255 14.1815 11.3561 14.6128 11.2309C15.1013 11.089 15.4999 10.672 15.4999 10.1632L15.5 8.13837C15.5 8.00575 15.4473 7.87856 15.3535 7.78479L12.6894 5.12085C12.4942 4.92559 12.4942 4.60901 12.6894 4.41374C12.8847 4.21847 13.2012 4.21847 13.3965 4.41372L16.0606 7.07766C16.3419 7.35898 16.5 7.74055 16.5 8.13842L16.4999 10.1543C16.4999 10.668 16.8938 11.0876 17.3872 11.2309C17.4983 11.2631 17.6078 11.2991 17.7155 11.3388C18.1719 11.5068 18.704 11.4224 19.0154 11.0488L20.7408 8.9783C20.8612 8.83385 20.8903 8.63408 20.8163 8.46125L19.5995 5.62205C19.4907 5.36823 19.6083 5.07429 19.8621 4.96552C20.1159 4.85674 20.4098 4.97431 20.5186 5.22813L21.7354 8.06733C21.9576 8.58582 21.8701 9.18513 21.509 9.61848L19.9116 11.5354C19.5655 11.9507 19.6221 12.5608 19.95 12.9907C19.9767 13.0256 20.0029 13.0609 20.0287 13.0966C20.3118 13.4888 20.797 13.7153 21.2621 13.5824L23.6813 12.8912C23.826 12.8499 23.9443 12.7457 24.0036 12.6074L25.2744 9.64191C25.3832 9.38809 25.6771 9.27051 25.9309 9.37928C26.1848 9.48805 26.3023 9.78199 26.1936 10.0358L24.9227 13.0013C24.745 13.4161 24.3899 13.7288 23.956 13.8528L21.7452 14.4844C21.2235 14.6334 20.9267 15.1727 20.9574 15.7144C20.9628 15.8089 20.9655 15.9041 20.9655 16Z" fill="#272522"/>
</svg>
