<svg width="37" height="37" viewBox="0 0 37 37" fill="none" xmlns="http://www.w3.org/2000/svg">
<path d="M31.7969 8.67188H5.20312C4.13025 8.67325 3.10171 9.10006 2.34307 9.8587C1.58443 10.6173 1.15763 11.6459 1.15625 12.7188V24.2812C1.15763 25.3541 1.58443 26.3827 2.34307 27.1413C3.10171 27.8999 4.13025 28.3267 5.20312 28.3281H31.7969C32.8698 28.3267 33.8983 27.8999 34.6569 27.1413C35.4156 26.3827 35.8424 25.3541 35.8438 24.2812V12.7188C35.8424 11.6459 35.4156 10.6173 34.6569 9.8587C33.8983 9.10006 32.8698 8.67325 31.7969 8.67188ZM34.6875 24.2812C34.6866 25.0476 34.3817 25.7823 33.8398 26.3242C33.2979 26.8661 32.5632 27.171 31.7969 27.1719H5.20312C4.43677 27.171 3.70206 26.8661 3.16016 26.3242C2.61826 25.7823 2.31342 25.0476 2.3125 24.2812V12.7188C2.31342 11.9524 2.61826 11.2177 3.16016 10.6758C3.70206 10.1339 4.43677 9.82904 5.20312 9.82812H31.7969C32.5632 9.82904 33.2979 10.1339 33.8398 10.6758C34.3817 11.2177 34.6866 11.9524 34.6875 12.7188V24.2812Z" fill="#272522"/>
<path d="M12.1406 13.2969C11.1115 13.2969 10.1056 13.602 9.24993 14.1738C8.39428 14.7455 7.72738 15.5581 7.33357 16.5089C6.93975 17.4596 6.83672 18.5058 7.03748 19.5151C7.23824 20.5244 7.73379 21.4515 8.46146 22.1792C9.18913 22.9068 10.1162 23.4024 11.1255 23.6031C12.1349 23.8039 13.181 23.7009 14.1318 23.3071C15.0825 22.9132 15.8951 22.2464 16.4669 21.3907C17.0386 20.5351 17.3438 19.5291 17.3438 18.5C17.3422 17.1205 16.7935 15.798 15.8181 14.8225C14.8427 13.8471 13.5201 13.2984 12.1406 13.2969ZM12.1406 22.5469C11.3402 22.5469 10.5578 22.3095 9.8923 21.8649C9.2268 21.4202 8.7081 20.7881 8.4018 20.0487C8.0955 19.3092 8.01536 18.4955 8.17151 17.7105C8.32766 16.9255 8.71309 16.2044 9.27905 15.6384C9.84502 15.0725 10.5661 14.687 11.3511 14.5309C12.1361 14.3747 12.9498 14.4549 13.6893 14.7612C14.4288 15.0675 15.0608 15.5862 15.5055 16.2517C15.9502 16.9172 16.1875 17.6996 16.1875 18.5C16.1861 19.5729 15.7593 20.6014 15.0007 21.3601C14.242 22.1187 13.2135 22.5455 12.1406 22.5469Z" fill="#272522"/>
<path d="M26.5939 16.1875H19.2887C18.7378 14.484 17.5969 13.0331 16.0713 12.096C14.5457 11.1589 12.7357 10.7972 10.9672 11.0761C9.19862 11.3549 7.58771 12.256 6.42447 13.617C5.26123 14.978 4.62207 16.7096 4.62207 18.5C4.62207 20.2904 5.26123 22.022 6.42447 23.383C7.58771 24.744 9.19862 25.6451 10.9672 25.9239C12.7357 26.2028 14.5457 25.8411 16.0713 24.904C17.5969 23.9669 18.7378 22.516 19.2887 20.8125H26.5939C27.2072 20.8125 27.7954 20.5689 28.2291 20.1352C28.6628 19.7015 28.9064 19.1133 28.9064 18.5C28.9064 17.8867 28.6628 17.2985 28.2291 16.8648C27.7954 16.4311 27.2072 16.1875 26.5939 16.1875ZM12.1408 24.8594C10.883 24.8594 9.65348 24.4864 8.60769 23.7876C7.5619 23.0888 6.7468 22.0957 6.26547 20.9336C5.78415 19.7716 5.65821 18.4929 5.90359 17.2593C6.14897 16.0258 6.75464 14.8926 7.64401 14.0032C8.53339 13.1139 9.66652 12.5082 10.9001 12.2628C12.1337 12.0174 13.4124 12.1434 14.5744 12.6247C15.7364 13.106 16.7296 13.9211 17.4284 14.9669C18.1272 16.0127 18.5001 17.2422 18.5001 18.5C18.4982 20.186 17.8275 21.8024 16.6353 22.9946C15.4431 24.1867 13.8268 24.8574 12.1408 24.8594ZM27.4108 19.3169C27.3038 19.4247 27.1766 19.5101 27.0363 19.5684C26.8961 19.6266 26.7457 19.6565 26.5939 19.6562H19.5581C19.6892 18.891 19.6892 18.109 19.5581 17.3438H26.5939C26.8224 17.344 27.0457 17.412 27.2355 17.5391C27.4254 17.6661 27.5734 17.8466 27.6608 18.0577C27.7482 18.2688 27.7711 18.5011 27.7266 18.7252C27.6821 18.9493 27.5722 19.1552 27.4108 19.3169Z" fill="#272522"/>
<path d="M22.5469 23.125H20.2344V24.2812H22.5469V23.125Z" fill="#272522"/>
<path d="M26.0156 23.125H23.7031V24.2812H26.0156V23.125Z" fill="#272522"/>
<path d="M24.8594 12.1406H21.3906V13.2969H24.8594V12.1406Z" fill="#272522"/>
<path d="M32.375 24.2812C32.375 24.4346 32.3141 24.5816 32.2057 24.69C32.0973 24.7985 31.9502 24.8594 31.7969 24.8594H30.0625V26.0156H31.7969C32.2569 26.0156 32.698 25.8329 33.0233 25.5076C33.3485 25.1824 33.5312 24.7412 33.5312 24.2812V23.7031H32.375V24.2812Z" fill="#272522"/>
<path d="M33.5312 21.3906H32.375V22.5469H33.5312V21.3906Z" fill="#272522"/>
<path d="M12.1406 16.1875C11.6833 16.1875 11.2362 16.3231 10.8559 16.5772C10.4756 16.8313 10.1792 17.1925 10.0042 17.615C9.82913 18.0376 9.78333 18.5026 9.87256 18.9511C9.96179 19.3997 10.182 19.8118 10.5054 20.1352C10.8289 20.4586 11.2409 20.6788 11.6895 20.7681C12.1381 20.8573 12.603 20.8115 13.0256 20.6365C13.4481 20.4614 13.8093 20.165 14.0634 19.7848C14.3175 19.4045 14.4531 18.9574 14.4531 18.5C14.4531 17.8867 14.2095 17.2985 13.7758 16.8648C13.3421 16.4311 12.7539 16.1875 12.1406 16.1875ZM12.1406 19.6563C11.9119 19.6563 11.6884 19.5884 11.4982 19.4614C11.3081 19.3343 11.1599 19.1538 11.0724 18.9425C10.9849 18.7312 10.962 18.4987 11.0066 18.2744C11.0512 18.0501 11.1613 17.8441 11.323 17.6824C11.4847 17.5207 11.6908 17.4106 11.9151 17.366C12.1393 17.3214 12.3718 17.3443 12.5831 17.4318C12.7944 17.5193 12.975 17.6675 13.102 17.8576C13.2291 18.0478 13.2969 18.2713 13.2969 18.5C13.2969 18.8067 13.1751 19.1008 12.9582 19.3176C12.7414 19.5344 12.4473 19.6563 12.1406 19.6563Z" fill="#272522"/>
</svg>
