<svg width="32" height="32" viewBox="0 0 32 32" fill="none" xmlns="http://www.w3.org/2000/svg">
<path d="M9.18697 20.656L6.17897 21.4752L5.38538 24.4896L7.59977 26.6848L10.6046 25.8656L11.3982 22.8512L9.18697 20.656Z" stroke="#272522" stroke-miterlimit="10"/>
<path d="M10.2975 17.7024L17.7919 10.1728C17.7919 10.1728 16.4447 1.33121 24.8863 2.35201L21.8239 5.5392L22.5599 9.4784L26.3423 10.208L29.6799 7.0272C29.6799 7.0272 30.5247 15.0112 21.8655 14.2112L14.4095 21.376C14.4095 21.376 16.0095 25.4144 12.3359 28.432C10.1695 30.2112 6.58867 30.2496 4.18547 27.9936C1.52307 25.4944 1.96467 21.9936 3.71187 19.7376C5.49747 17.4368 8.87987 17.2288 10.2975 17.7024V17.7024Z" stroke="#272522" stroke-miterlimit="10"/>
</svg>
