<svg width="17" height="24" viewBox="0 0 17 24" fill="none" xmlns="http://www.w3.org/2000/svg">
<path d="M8.79648 0.738281C4.48407 0.738281 0.975586 4.24676 0.975586 8.55917C0.975586 13.9794 8.80417 23.2383 8.80417 23.2383C8.80417 23.2383 16.6174 13.7129 16.6174 8.55917C16.6174 4.24676 13.109 0.738281 8.79648 0.738281ZM11.1562 10.8491C10.5055 11.4997 9.65108 11.825 8.79648 11.825C7.94202 11.825 7.08728 11.4997 6.43689 10.8491C5.1357 9.54808 5.1357 7.43101 6.43689 6.12982C7.06696 5.49948 7.90507 5.15231 8.79648 5.15231C9.68788 5.15231 10.5259 5.49962 11.1562 6.12982C12.4574 7.43101 12.4574 9.54808 11.1562 10.8491Z" fill="#FF8514"/>
</svg>
