<svg width="39" height="39" viewBox="0 0 39 39" fill="none" xmlns="http://www.w3.org/2000/svg">
<path d="M19.5773 2.79336C28.9863 2.79336 36.2325 10.2456 36.2325 19.4188C36.2325 28.592 29.1217 36 19.5773 36C9.7571 36 3 28.3491 3 19.5C3 10.3268 10.1683 2.79336 19.5773 2.79336ZM19.5773 1.83759C17.2061 1.83759 14.9051 2.30559 12.7367 3.22209C10.6424 4.10739 8.7626 5.37489 7.148 6.98949C5.5334 8.60409 4.2659 10.4839 3.3806 12.5782C2.4641 14.7427 2 17.0476 2 19.4188C2 21.79 2.4641 24.0949 3.3806 26.2633C4.2659 28.3576 5.5334 30.2374 7.148 31.852C8.7626 33.4666 10.6424 34.7341 12.7367 35.6194C14.9051 36.5359 17.2061 37 19.5773 37C21.9485 37 24.2534 36.5359 26.4218 35.6194C28.5161 34.7341 30.3959 33.4666 32.0105 31.852C33.6251 30.2374 34.8926 28.3576 35.7779 26.2633C36.6944 24.0949 37.1585 21.7939 37.1585 19.4188C37.1585 17.0437 36.6944 14.7427 35.7779 12.5743C34.8926 10.48 33.6251 8.60019 32.0105 6.98559C30.3959 5.37489 28.5161 4.10739 26.4218 3.22209C24.2534 2.30559 21.9524 1.83759 19.5773 1.83759Z" fill="#272522"/>
<path d="M19.492 8.56053C19.492 8.56053 27.6313 8.50203 30.9814 16.2669C30.9814 16.2669 26.5471 14.3169 19.5505 14.3364C12.5539 14.3559 8.43555 16.3059 8.43555 16.3059C8.43555 16.3059 9.89805 8.89593 19.492 8.56053V8.56053Z" stroke="#272522" stroke-width="0.8" stroke-miterlimit="10" stroke-linecap="round" stroke-linejoin="round"/>
<path d="M17.5694 30.9426C17.5694 30.9426 17.5694 30.9348 17.5655 30.9153C17.5109 30.4239 16.5983 23.4858 8.1626 21.7581C8.1626 21.7581 10.136 29.3202 17.5694 30.9426V30.9426ZM21.4616 30.9426C21.4616 30.9426 21.4616 30.9348 21.4655 30.9153C21.5201 30.4239 22.4327 23.4858 30.8684 21.7581C30.8684 21.7581 28.8911 29.3202 21.4616 30.9426V30.9426Z" stroke="#272522" stroke-width="0.8" stroke-miterlimit="10" stroke-linecap="round" stroke-linejoin="round"/>
</svg>
